<svg xmlns="http://www.w3.org/2000/svg" xmlns:xlink="http://www.w3.org/1999/xlink" width="500" zoomAndPan="magnify" viewBox="0 0 375 374.999991" height="500" preserveAspectRatio="xMidYMid meet" version="1.2"><defs><clipPath id="6029a6f480"><path d="M 42.992188 57 L 324.242188 57 L 324.242188 282.1875 L 42.992188 282.1875 Z M 42.992188 57 "/></clipPath><clipPath id="60dad606ab"><path d="M 64 8.4375 L 261 8.4375 L 261 240 L 64 240 Z M 64 8.4375 "/></clipPath></defs><g id="36fc0ce9f2"><g clip-rule="nonzero" clip-path="url(#6029a6f480)"><path style=" stroke:none;fill-rule:nonzero;fill:#0cc0df;fill-opacity:1;" d="M 55.351562 124.261719 C 55.351562 192.835938 112.578125 248.425781 183.175781 248.425781 C 253.777344 248.425781 311.003906 192.835938 311.003906 124.261719 C 311.003906 99.796875 303.710938 76.976562 291.125 57.746094 C 311.722656 81.503906 324.125 112.160156 324.125 145.648438 C 324.125 221.054688 261.199219 282.183594 183.558594 282.183594 C 105.921875 282.183594 42.988281 221.054688 42.988281 145.648438 C 42.988281 113.851562 54.171875 84.605469 72.929688 61.414062 C 61.761719 79.84375 55.351562 101.3125 55.351562 124.261719 Z M 55.351562 124.261719 "/></g><g clip-rule="nonzero" clip-path="url(#60dad606ab)"><path style=" stroke:none;fill-rule:nonzero;fill:#38b6ff;fill-opacity:1;" d="M 202.308594 18.585938 C 142.667969 18.585938 94.324219 65.546875 94.324219 123.472656 C 94.324219 181.414062 142.671875 228.363281 202.308594 228.363281 C 223.585938 228.363281 243.429688 222.375 260.148438 212.058594 C 239.5 228.953125 212.824219 239.140625 183.707031 239.140625 C 118.121094 239.140625 64.964844 187.496094 64.964844 123.785156 C 64.964844 60.089844 118.121094 8.445312 183.707031 8.445312 C 211.355469 8.445312 236.789062 17.621094 256.96875 33.003906 C 240.933594 23.84375 222.253906 18.585938 202.308594 18.585938 Z M 202.308594 18.585938 "/></g><path style=" stroke:none;fill-rule:nonzero;fill:#5e17eb;fill-opacity:1;" d="M 253.535156 195.601562 C 288.199219 161.945312 288.199219 107.34375 253.535156 73.671875 C 218.871094 40.003906 162.667969 40.003906 128.003906 73.671875 C 115.632812 85.679688 107.683594 100.363281 104.140625 115.800781 C 106.035156 94.316406 115.441406 73.351562 132.367188 56.90625 C 170.488281 19.875 232.296875 19.875 270.414062 56.90625 C 308.535156 93.933594 308.535156 153.964844 270.414062 191.003906 C 254.335938 206.605469 234.066406 215.640625 213.125 218.089844 C 227.929688 214.359375 241.941406 206.863281 253.535156 195.601562 Z M 253.535156 195.601562 "/><g style="fill:#000000;fill-opacity:1;"><g transform="translate(85.683954, 328.499978)"><path style="stroke:none" d="M 18.546875 -12.046875 L 23.484375 -12.046875 L 23.484375 -2.5625 C 22.210938 -1.613281 20.742188 -0.878906 19.078125 -0.359375 C 17.410156 0.148438 15.734375 0.40625 14.046875 0.40625 C 11.617188 0.40625 9.4375 -0.109375 7.5 -1.140625 C 5.570312 -2.179688 4.054688 -3.617188 2.953125 -5.453125 C 1.847656 -7.285156 1.296875 -9.359375 1.296875 -11.671875 C 1.296875 -13.984375 1.847656 -16.054688 2.953125 -17.890625 C 4.054688 -19.734375 5.582031 -21.171875 7.53125 -22.203125 C 9.488281 -23.234375 11.691406 -23.75 14.140625 -23.75 C 16.191406 -23.75 18.050781 -23.40625 19.71875 -22.71875 C 21.382812 -22.03125 22.785156 -21.03125 23.921875 -19.71875 L 20.453125 -16.515625 C 18.785156 -18.265625 16.769531 -19.140625 14.40625 -19.140625 C 12.914062 -19.140625 11.59375 -18.828125 10.4375 -18.203125 C 9.28125 -17.585938 8.378906 -16.710938 7.734375 -15.578125 C 7.085938 -14.441406 6.765625 -13.140625 6.765625 -11.671875 C 6.765625 -10.222656 7.085938 -8.929688 7.734375 -7.796875 C 8.378906 -6.671875 9.273438 -5.789062 10.421875 -5.15625 C 11.566406 -4.519531 12.875 -4.203125 14.34375 -4.203125 C 15.894531 -4.203125 17.296875 -4.535156 18.546875 -5.203125 Z M 18.546875 -12.046875 "/></g></g><g style="fill:#000000;fill-opacity:1;"><g transform="translate(111.397945, 328.499978)"><path style="stroke:none" d="M 14.078125 0.40625 C 11.648438 0.40625 9.460938 -0.113281 7.515625 -1.15625 C 5.578125 -2.207031 4.054688 -3.648438 2.953125 -5.484375 C 1.847656 -7.316406 1.296875 -9.378906 1.296875 -11.671875 C 1.296875 -13.960938 1.847656 -16.023438 2.953125 -17.859375 C 4.054688 -19.691406 5.578125 -21.128906 7.515625 -22.171875 C 9.460938 -23.222656 11.648438 -23.75 14.078125 -23.75 C 16.503906 -23.75 18.679688 -23.222656 20.609375 -22.171875 C 22.546875 -21.128906 24.070312 -19.691406 25.1875 -17.859375 C 26.300781 -16.023438 26.859375 -13.960938 26.859375 -11.671875 C 26.859375 -9.378906 26.300781 -7.316406 25.1875 -5.484375 C 24.070312 -3.648438 22.546875 -2.207031 20.609375 -1.15625 C 18.679688 -0.113281 16.503906 0.40625 14.078125 0.40625 Z M 14.078125 -4.203125 C 15.453125 -4.203125 16.695312 -4.519531 17.8125 -5.15625 C 18.925781 -5.789062 19.800781 -6.671875 20.4375 -7.796875 C 21.070312 -8.929688 21.390625 -10.222656 21.390625 -11.671875 C 21.390625 -13.117188 21.070312 -14.410156 20.4375 -15.546875 C 19.800781 -16.679688 18.925781 -17.5625 17.8125 -18.1875 C 16.695312 -18.820312 15.453125 -19.140625 14.078125 -19.140625 C 12.703125 -19.140625 11.457031 -18.820312 10.34375 -18.1875 C 9.226562 -17.5625 8.351562 -16.679688 7.71875 -15.546875 C 7.082031 -14.410156 6.765625 -13.117188 6.765625 -11.671875 C 6.765625 -10.222656 7.082031 -8.929688 7.71875 -7.796875 C 8.351562 -6.671875 9.226562 -5.789062 10.34375 -5.15625 C 11.457031 -4.519531 12.703125 -4.203125 14.078125 -4.203125 Z M 14.078125 -4.203125 "/></g></g><g style="fill:#000000;fill-opacity:1;"><g transform="translate(139.546599, 328.499978)"><path style="stroke:none" d="M 18.140625 -5 L 7.3125 -5 L 5.234375 0 L -0.296875 0 L 10.109375 -23.34375 L 15.453125 -23.34375 L 25.890625 0 L 20.21875 0 Z M 16.453125 -9.109375 L 12.75 -18.046875 L 9.046875 -9.109375 Z M 16.453125 -9.109375 "/></g></g><g style="fill:#000000;fill-opacity:1;"><g transform="translate(165.093827, 328.499978)"><path style="stroke:none" d="M 2.765625 -23.34375 L 8.171875 -23.34375 L 8.171875 -4.40625 L 19.875 -4.40625 L 19.875 0 L 2.765625 0 Z M 2.765625 -23.34375 "/></g></g><g style="fill:#000000;fill-opacity:1;"><g transform="translate(185.238117, 328.499978)"><path style="stroke:none" d=""/></g></g><g style="fill:#000000;fill-opacity:1;"><g transform="translate(194.676585, 328.499978)"><path style="stroke:none" d="M 18.140625 -5 L 7.3125 -5 L 5.234375 0 L -0.296875 0 L 10.109375 -23.34375 L 15.453125 -23.34375 L 25.890625 0 L 20.21875 0 Z M 16.453125 -9.109375 L 12.75 -18.046875 L 9.046875 -9.109375 Z M 16.453125 -9.109375 "/></g></g><g style="fill:#000000;fill-opacity:1;"><g transform="translate(220.223813, 328.499978)"><path style="stroke:none" d="M 12.875 -23.34375 C 14.945312 -23.34375 16.742188 -23 18.265625 -22.3125 C 19.785156 -21.625 20.957031 -20.644531 21.78125 -19.375 C 22.601562 -18.113281 23.015625 -16.613281 23.015625 -14.875 C 23.015625 -13.164062 22.601562 -11.671875 21.78125 -10.390625 C 20.957031 -9.109375 19.785156 -8.128906 18.265625 -7.453125 C 16.742188 -6.773438 14.945312 -6.4375 12.875 -6.4375 L 8.171875 -6.4375 L 8.171875 0 L 2.765625 0 L 2.765625 -23.34375 Z M 12.578125 -10.84375 C 14.203125 -10.84375 15.4375 -11.191406 16.28125 -11.890625 C 17.125 -12.585938 17.546875 -13.582031 17.546875 -14.875 C 17.546875 -16.1875 17.125 -17.191406 16.28125 -17.890625 C 15.4375 -18.597656 14.203125 -18.953125 12.578125 -18.953125 L 8.171875 -18.953125 L 8.171875 -10.84375 Z M 12.578125 -10.84375 "/></g></g><g style="fill:#000000;fill-opacity:1;"><g transform="translate(244.637092, 328.499978)"><path style="stroke:none" d="M 12.875 -23.34375 C 14.945312 -23.34375 16.742188 -23 18.265625 -22.3125 C 19.785156 -21.625 20.957031 -20.644531 21.78125 -19.375 C 22.601562 -18.113281 23.015625 -16.613281 23.015625 -14.875 C 23.015625 -13.164062 22.601562 -11.671875 21.78125 -10.390625 C 20.957031 -9.109375 19.785156 -8.128906 18.265625 -7.453125 C 16.742188 -6.773438 14.945312 -6.4375 12.875 -6.4375 L 8.171875 -6.4375 L 8.171875 0 L 2.765625 0 L 2.765625 -23.34375 Z M 12.578125 -10.84375 C 14.203125 -10.84375 15.4375 -11.191406 16.28125 -11.890625 C 17.125 -12.585938 17.546875 -13.582031 17.546875 -14.875 C 17.546875 -16.1875 17.125 -17.191406 16.28125 -17.890625 C 15.4375 -18.597656 14.203125 -18.953125 12.578125 -18.953125 L 8.171875 -18.953125 L 8.171875 -10.84375 Z M 12.578125 -10.84375 "/></g></g></g></svg>